<svg width="45" height="45" viewBox="0 0 45 45" fill="none" xmlns="http://www.w3.org/2000/svg">
<path d="M22.5 45C34.9264 45 45 34.9264 45 22.5C45 10.0736 34.9264 0 22.5 0C10.0736 0 0 10.0736 0 22.5C0 34.9264 10.0736 45 22.5 45Z" fill="#EDEDED"/>
<path d="M22.5 42.1391C11.9503 42.1391 3.33775 33.5563 3.33775 22.9768C3.33775 12.3974 11.9205 3.81458 22.5 3.81458C33.0795 3.81458 41.6623 12.3974 41.6623 22.9768C41.6623 33.5563 33.0795 42.1391 22.5 42.1391ZM22.5 5.30464C12.755 5.30464 4.82782 13.2318 4.82782 22.9768C4.82782 32.7219 12.755 40.649 22.5 40.649C32.245 40.649 40.1722 32.7219 40.1722 22.9768C40.1722 13.2318 32.245 5.30464 22.5 5.30464Z" fill="white"/>
<path d="M32.543 25.1225C33.5306 25.1225 34.3311 24.322 34.3311 23.3344C34.3311 22.3469 33.5306 21.5464 32.543 21.5464C31.5555 21.5464 30.755 22.3469 30.755 23.3344C30.755 24.322 31.5555 25.1225 32.543 25.1225Z" fill="white"/>
<path d="M25.9271 15.5563C26.9147 15.5563 27.7152 14.7557 27.7152 13.7682C27.7152 12.7807 26.9147 11.9801 25.9271 11.9801C24.9396 11.9801 24.1391 12.7807 24.1391 13.7682C24.1391 14.7557 24.9396 15.5563 25.9271 15.5563Z" fill="white"/>
<path d="M18.4768 18.7748L18.5364 16.3609L19.9669 18.3576L24.1391 17.0464V17.0166L24.0795 16.9271L20.1457 11.2649C19.6391 10.5497 18.5066 10.8775 18.4768 11.7715L18.3278 18.6556C18.3278 18.7152 18.3278 18.745 18.3278 18.8046C18.3278 18.8344 18.298 18.8642 18.298 18.9238L18.4768 18.8642C18.4768 18.8046 18.4768 18.8046 18.4768 18.7748Z" fill="white"/>
<path d="M28.5795 23.4238L28.4603 23.245L28.3709 23.1258L24.6755 27.9536L24.8543 28.0132L25.0629 28.0728L31.351 30.2781C32.1854 30.5762 32.9007 29.6225 32.394 28.9073L28.5795 23.4238Z" fill="white"/>
<path d="M31.6192 15.1987L25.0331 17.1954L24.4371 17.3742L24.3775 17.404L20.2053 18.6854L18.2682 19.2815L17.9702 19.3709L17.8808 19.4007L17.6722 19.4603L11.2351 21.4272L11.0861 21.457C11.0563 21.457 11.0265 21.4868 10.9967 21.4868C10.9669 21.4868 10.9371 21.5166 10.9371 21.5166C10.9073 21.5166 10.9073 21.5464 10.8775 21.5464L10.8477 21.5762C10.8179 21.606 10.7881 21.606 10.7881 21.6358C10.7285 21.6954 10.6689 21.755 10.6391 21.8146C10.5795 21.904 10.5497 21.9636 10.5199 22.053C10.4901 22.1722 10.4901 22.2616 10.4901 22.3808C10.4901 22.4106 10.4901 22.4404 10.4901 22.4702C10.4901 22.5298 10.5199 22.5596 10.5199 22.6192C10.5199 22.649 10.5497 22.6788 10.5497 22.7086C10.5795 22.7384 10.5795 22.798 10.6093 22.8278C10.6093 22.8576 10.6391 22.8576 10.6689 22.8874C10.6987 22.9172 10.6987 22.947 10.7285 22.947L10.7583 22.9768C10.7881 23.0066 10.7881 23.0066 10.8179 23.0364C10.8477 23.0364 10.8477 23.0662 10.8775 23.0662C10.9371 23.096 10.9669 23.1258 11.0265 23.1556H11.0563H11.0861L11.7417 23.394L16.9868 25.2119L17.5828 25.4205L17.7914 25.4801C17.9404 25.5695 18.0596 25.7185 18.149 25.8974C18.2086 26.0166 18.2086 26.1358 18.2086 26.255L18.1788 28.6689L18.0894 33.1391C18.0596 34.0033 19.1921 34.3907 19.7285 33.7053L23.8411 28.2815L24.1093 27.9536L24.2285 27.8046L28.0728 22.6788L28.1026 22.649L28.4901 22.1424L32.6324 16.6589C33.1391 15.9139 32.4834 14.9603 31.6192 15.1987ZM19.9073 26.553L18.298 28.5795L18.3278 26.1656C18.3278 26.106 18.3278 26.0762 18.3278 26.0166C18.3278 25.8974 18.2682 25.7781 18.2086 25.6887C18.0894 25.5099 17.9404 25.3609 17.702 25.2715L15.4073 24.4967L21.3377 22.5298L22.5298 22.1424C22.5894 22.1126 22.6192 22.1126 22.6788 22.1126C22.8874 22.1126 23.0364 22.351 23.0066 22.5596C23.0066 22.6192 22.9768 22.649 22.947 22.6788L22.6788 23.0364L20.0563 26.3444L19.9073 26.553Z" fill="white"/>
</svg>
