<svg width="45" height="45" viewBox="0 0 40 40" fill="none" xmlns="http://www.w3.org/2000/svg">
<path d="M20 40C31.0457 40 40 31.0457 40 20C40 8.9543 31.0457 0 20 0C8.9543 0 0 8.9543 0 20C0 31.0457 8.9543 40 20 40Z" fill="#EDEDED"/>
<path d="M20 37.4569C10.6225 37.4569 2.96689 29.8278 2.96689 20.4238C2.96689 11.0199 10.596 3.39072 20 3.39072C29.404 3.39072 37.0331 11.0199 37.0331 20.4238C37.0331 29.8278 29.404 37.4569 20 37.4569ZM20 4.71522C11.3378 4.71522 4.29139 11.7616 4.29139 20.4238C4.29139 29.0861 11.3378 36.1324 20 36.1324C28.6623 36.1324 35.7086 29.0861 35.7086 20.4238C35.7086 11.7616 28.6623 4.71522 20 4.71522Z" fill="white"/>
<path d="M12.9007 26.6225C13.7785 26.6225 14.4901 25.9109 14.4901 25.0331C14.4901 24.1553 13.7785 23.4437 12.9007 23.4437C12.0229 23.4437 11.3113 24.1553 11.3113 25.0331C11.3113 25.9109 12.0229 26.6225 12.9007 26.6225Z" fill="white"/>
<path d="M16.4238 16.6887L16.4768 14.5431L17.7483 16.3179L21.457 15.1523V15.1258L21.404 15.0464L17.9073 10.0132C17.457 9.37749 16.4503 9.66888 16.4238 10.4636L16.2914 16.5828C16.2914 16.6358 16.2914 16.6623 16.2914 16.7152C16.2914 16.7417 16.2649 16.7682 16.2649 16.8212L16.4238 16.7682C16.4238 16.7152 16.4238 16.7152 16.4238 16.6887Z" fill="white"/>
<path d="M25.404 20.8212L25.298 20.6623L25.2185 20.5563L21.9338 24.8477L22.0927 24.9007L22.2781 24.9537L27.8675 26.9139C28.6093 27.1788 29.245 26.3311 28.7947 25.6954L25.404 20.8212Z" fill="white"/>
<path d="M28.106 13.5099L22.2517 15.2848L21.7219 15.4437L21.6689 15.4702L17.9603 16.6093L16.2384 17.1391L15.9735 17.2185L15.894 17.245L15.7086 17.298L9.98675 19.0464L9.8543 19.0728C9.82781 19.0728 9.80132 19.0993 9.77483 19.0993C9.74834 19.0993 9.72185 19.1258 9.72185 19.1258C9.69536 19.1258 9.69536 19.1523 9.66887 19.1523L9.64238 19.1788C9.61589 19.2053 9.5894 19.2053 9.5894 19.2318C9.53642 19.2848 9.48344 19.3377 9.45695 19.3907C9.40397 19.4702 9.37748 19.5232 9.35099 19.6026C9.3245 19.7086 9.3245 19.7881 9.3245 19.894C9.3245 19.9205 9.3245 19.947 9.3245 19.9735C9.3245 20.0265 9.35099 20.053 9.35099 20.106C9.35099 20.1325 9.37748 20.1589 9.37748 20.1854C9.40397 20.2119 9.40397 20.2649 9.43046 20.2914C9.43046 20.3179 9.45695 20.3179 9.48344 20.3444C9.50993 20.3709 9.50993 20.3974 9.53642 20.3974L9.56291 20.4238C9.5894 20.4503 9.5894 20.4503 9.61589 20.4768C9.64238 20.4768 9.64238 20.5033 9.66887 20.5033C9.72185 20.5298 9.74834 20.5563 9.80132 20.5828H9.82781H9.8543L10.4371 20.7947L15.0993 22.4106L15.6291 22.596L15.8146 22.649C15.947 22.7285 16.053 22.8609 16.1324 23.0199C16.1854 23.1258 16.1854 23.2318 16.1854 23.3377L16.1589 25.4834L16.0795 29.457C16.053 30.2252 17.0596 30.5695 17.5364 29.9603L21.192 25.1391L21.4305 24.8477L21.5364 24.7152L24.9536 20.1589L24.9801 20.1325L25.3245 19.6821L29.0066 14.8079C29.4569 14.1457 28.8742 13.298 28.106 13.5099ZM17.6954 23.6026L16.2649 25.404L16.2914 23.2583C16.2914 23.2053 16.2914 23.1788 16.2914 23.1258C16.2914 23.0199 16.2384 22.9139 16.1854 22.8344C16.0795 22.6755 15.947 22.543 15.7351 22.4636L13.6954 21.7748L18.9669 20.0265L20.0265 19.6821C20.0795 19.6556 20.106 19.6556 20.1589 19.6556C20.3444 19.6556 20.4768 19.8675 20.4503 20.053C20.4503 20.106 20.4238 20.1324 20.3973 20.1589L20.1589 20.4768L17.8278 23.4172L17.6954 23.6026Z" fill="white"/>
</svg>
