<svg width="151" height="151" viewBox="0 0 151 151" fill="none" xmlns="http://www.w3.org/2000/svg">
<path d="M75.5 151C117.197 151 151 117.197 151 75.5C151 33.8025 117.197 0 75.5 0C33.8025 0 0 33.8025 0 75.5C0 117.197 33.8025 151 75.5 151Z" fill="#192A3E" fill-opacity="0.15"/>
<path d="M75.5 141.4C40.1 141.4 11.2 112.6 11.2 77.1C11.2 41.6 40 12.8 75.5 12.8C111 12.8 139.8 41.6 139.8 77.1C139.8 112.6 111 141.4 75.5 141.4ZM75.5 17.8C42.8 17.8 16.2 44.4 16.2 77.1C16.2 109.8 42.8 136.4 75.5 136.4C108.2 136.4 134.8 109.8 134.8 77.1C134.8 44.4 108.2 17.8 75.5 17.8Z" fill="#192A3E"/>
<path d="M48.7 100.5C52.0137 100.5 54.7 97.8137 54.7 94.5C54.7 91.1863 52.0137 88.5 48.7 88.5C45.3862 88.5 42.7 91.1863 42.7 94.5C42.7 97.8137 45.3862 100.5 48.7 100.5Z" fill="#192A3E"/>
<path d="M61.9999 63L62.1999 54.9L66.9999 61.6L80.9999 57.2V57.1L80.7999 56.8L67.5999 37.8C65.8999 35.4 62.0999 36.5 61.9999 39.5L61.4999 62.6C61.4999 62.8 61.4999 62.9 61.4999 63.1C61.4999 63.2 61.3999 63.3 61.3999 63.5L61.9999 63.3C61.9999 63.1 61.9999 63.1 61.9999 63Z" fill="#192A3E"/>
<path d="M95.8999 78.6L95.4999 78L95.1999 77.6L82.7999 93.8L83.3999 94L84.0999 94.2L105.2 101.6C108 102.6 110.4 99.4 108.7 97L95.8999 78.6Z" fill="#192A3E"/>
<path d="M106.1 51L84 57.7L82 58.3L81.8 58.4L67.8 62.7L61.2999 64.7L60.2999 65L60 65.1L59.2999 65.3L37.7 71.9L37.2 72C37.1 72 37 72.1 36.9 72.1C36.8 72.1 36.7 72.2 36.7 72.2C36.6 72.2 36.6 72.3 36.5 72.3L36.4 72.4C36.3 72.5 36.2 72.5 36.2 72.6C36 72.8 35.8 73 35.7 73.2C35.5 73.5 35.3999 73.7 35.2999 74C35.1999 74.4 35.2 74.7 35.2 75.1C35.2 75.2 35.2 75.3 35.2 75.4C35.2 75.6 35.2999 75.7 35.2999 75.9C35.2999 76 35.4 76.1 35.4 76.2C35.5 76.3 35.4999 76.5 35.5999 76.6C35.5999 76.7 35.6999 76.7 35.7999 76.8C35.8999 76.9 35.9 77 36 77L36.0999 77.1C36.1999 77.2 36.1999 77.2 36.2999 77.3C36.3999 77.3 36.4 77.4 36.5 77.4C36.7 77.5 36.8 77.6 37 77.7H37.0999H37.2L39.4 78.5L57 84.6L59 85.3L59.7 85.5C60.2 85.8 60.6 86.3 60.9 86.9C61.1 87.3 61.0999 87.7 61.0999 88.1L61 96.2L60.7 111.2C60.6 114.1 64.3999 115.4 66.1999 113.1L80 94.9L80.9 93.8L81.3 93.3L94.1999 76.1L94.3 76L95.5999 74.3L109.5 55.9C111.2 53.4 109 50.2 106.1 51ZM66.8 89.1L61.4 95.9L61.5 87.8C61.5 87.6 61.5 87.5 61.5 87.3C61.5 86.9 61.2999 86.5 61.0999 86.2C60.6999 85.6 60.2 85.1 59.4 84.8L51.7 82.2L71.5999 75.6L75.5999 74.3C75.7999 74.2 75.8999 74.2 76.0999 74.2C76.7999 74.2 77.2999 75 77.1999 75.7C77.1999 75.9 77.0999 76 77 76.1L76.0999 77.3L67.3 88.4L66.8 89.1Z" fill="#192A3E"/>
</svg>
